<svg width="530" height="56" viewBox="0 0 530 56" fill="none" xmlns="http://www.w3.org/2000/svg">
<g clip-path="url(#clip0_102_4618)">
<path d="M23.45 9.63007H16.44V55.0301H6.87V9.63007H0V0.0700684H23.45V9.63007Z" fill="white"/>
<path d="M49.79 47.8101C49.79 49.5801 49.37 51.1401 48.44 52.5601C47.38 54.1901 46.03 54.9701 44.33 54.9701H31.93C27.96 54.9701 25.98 52.5601 25.98 47.8201V7.22007C25.98 5.17007 26.48 3.54007 27.4 2.26007C28.47 0.780068 29.96 0.0700684 31.95 0.0700684H44.42C46.05 0.0700684 47.39 0.850068 48.46 2.48007C49.38 3.90007 49.81 5.45007 49.81 7.23007V47.8201L49.79 47.8101ZM40.23 12.1801C40.23 10.4801 39.45 9.63007 37.82 9.63007C36.19 9.63007 35.48 10.4801 35.48 12.1801V43.2001C35.48 44.6901 36.26 45.4001 37.82 45.4001C39.38 45.4001 40.23 44.6901 40.23 43.2001V12.1801V12.1801Z" fill="white"/>
<path d="M86.3399 9.63007H79.3299V55.0301H69.7699V9.63007H62.8999V0.0700684H86.3499V9.63007H86.3399Z" fill="white"/>
<path d="M112.13 55.0401H102.5V28.5501H97.8298V55.0401H88.3398V0.0700684H97.8298V18.9801H102.5V0.0700684H112.13V55.0301V55.0401Z" fill="white"/>
<path d="M133.8 55.04H115.88V0.07L133.8 0V9.85H125.44V19.06H133.8V28.62H125.44V45.27H133.8V55.04V55.04Z" fill="white"/>
<path d="M168.51 54.9601H153.78C149.81 54.9601 147.83 52.5501 147.83 47.8101V7.22006C147.83 5.17006 148.33 3.54006 149.25 2.26006C150.31 0.770059 151.8 0.0600586 153.78 0.0600586H168.51V9.83006H159.8C158.17 9.83006 157.32 10.6101 157.32 12.1701V43.1901C157.32 44.3901 158.59 45.2401 159.8 45.2401H168.51V54.9401V54.9601Z" fill="white"/>
<path d="M189.05 55.0401H171.13L171.2 0.0800781H180.69V45.2701H189.05V55.0401V55.0401Z" fill="white"/>
<path d="M215.97 47.8101C215.97 49.5801 215.55 51.1401 214.62 52.5601C213.56 54.1901 212.21 54.9701 210.51 54.9701H198.11C194.14 54.9701 192.16 52.5601 192.16 47.8201V7.22006C192.16 5.17006 192.66 3.54006 193.58 2.26006C194.64 0.770059 196.13 0.0600586 198.11 0.0600586H210.58C212.21 0.0600586 213.56 0.840059 214.62 2.47006C215.54 3.89006 215.97 5.44006 215.97 7.22006V47.8101V47.8101ZM206.41 12.1801C206.41 10.4801 205.63 9.63006 204 9.63006C202.37 9.63006 201.66 10.4801 201.66 12.1801V43.2001C201.66 44.6901 202.44 45.4001 204 45.4001C205.56 45.4001 206.41 44.6901 206.41 43.2001V12.1801Z" fill="white"/>
<path d="M243.17 47.8101C243.17 49.5801 242.74 51.1401 241.82 52.5601C240.76 54.1901 239.41 54.9701 237.78 54.9701H225.31C221.34 54.9701 219.36 52.5601 219.36 47.8201V0.0700684H228.92V42.6401C228.92 44.4101 229.7 45.2601 231.26 45.2601C232.82 45.2601 233.6 44.4101 233.6 42.6401V0.0700684H243.16V47.8101H243.17Z" fill="white"/>
<path d="M270.36 47.8101C270.36 49.9301 269.51 51.6301 267.81 52.9801C266.11 54.3301 264.2 54.9601 262 54.9601L246.56 55.0301V0.0700684H262C264.2 0.0700684 266.11 0.710068 267.81 2.05007C269.51 3.39007 270.36 5.09007 270.36 7.22007V47.8101ZM260.8 12.6101C260.8 10.6301 260.02 9.63007 258.46 9.63007H256.12V45.4001H258.46C260.02 45.4001 260.8 44.4801 260.8 42.7101V12.6101Z" fill="white"/>
<path d="M307.55 55.0401H297.99L297.49 45.1901H293.45L292.88 55.0401H283.39L286.23 0.0700684H304.72L307.55 55.0301V55.0401ZM297 35.6301L295.65 9.71007H295.3L293.95 35.6301H297V35.6301Z" fill="#E72787"/>
<path d="M334.47 55.0401H324.91L320.16 28.5501V55.0401H310.6V0.0700684H320.16L324.91 18.9801V0.0700684H334.47V55.0301V55.0401Z" fill="#E72787"/>
<path d="M361.74 47.8101C361.74 49.9301 360.89 51.6301 359.19 52.9801C357.49 54.3301 355.58 54.9601 353.38 54.9601L337.94 55.0301V0.0700684H353.38C355.58 0.0700684 357.49 0.710068 359.19 2.05007C360.89 3.39007 361.74 5.09007 361.74 7.22007V47.8101ZM352.18 12.6101C352.18 10.6301 351.4 9.63007 349.84 9.63007H347.5V45.4001H349.84C351.4 45.4001 352.18 44.4801 352.18 42.7101V12.6101Z" fill="#E72787"/>
<path d="M399.14 49.4401C399.14 53.1201 396.09 54.9601 392.2 54.9601H375.34V0.0700684H392.2C394.11 0.0700684 395.67 0.490068 396.95 1.34007C398.44 2.40007 399.15 3.75007 399.15 5.52007V19.1201C399.15 21.6001 396.95 23.4401 394.76 23.6501L394.55 23.7201C397.1 24.0701 399.15 26.0601 399.15 28.5401V49.4401H399.14ZM389.58 12.0401C389.58 10.5501 388.8 9.77007 387.24 9.77007H384.9V18.9801H387.24C388.8 18.9801 389.58 18.1301 389.58 16.4301V12.0401ZM389.58 31.0201C389.58 29.3901 388.8 28.5401 387.24 28.5401H384.9V45.1901H387.24C388.8 45.1901 389.58 44.4101 389.58 42.7801V31.0201V31.0201Z" fill="#E72787"/>
<path d="M420.74 55.04H402.82V0.07L420.74 0V9.85H412.38V19.06H420.74V28.62H412.38V45.27H420.74V55.04V55.04Z" fill="#E72787"/>
<path d="M448.93 0.0700684L440.36 38.6001V54.9601H430.73V38.5301L422.23 0.0700684H432.08L435.41 19.4801H435.69L439.16 0.0700684H448.94H448.93Z" fill="#E72787"/>
<path d="M474.5 47.8101C474.5 49.5801 474.08 51.1401 473.15 52.5601C472.09 54.1901 470.74 54.9701 469.04 54.9701H456.64C452.67 54.9701 450.69 52.5601 450.69 47.8201V7.22006C450.69 5.17006 451.19 3.54006 452.11 2.26006C453.17 0.770059 454.66 0.0600586 456.64 0.0600586H469.11C470.74 0.0600586 472.08 0.840059 473.15 2.47006C474.07 3.89006 474.5 5.44006 474.5 7.22006V47.8101V47.8101ZM464.94 12.1801C464.94 10.4801 464.16 9.63006 462.53 9.63006C460.9 9.63006 460.19 10.4801 460.19 12.1801V43.2001C460.19 44.6901 460.97 45.4001 462.53 45.4001C464.09 45.4001 464.94 44.6901 464.94 43.2001V12.1801Z" fill="#E72787"/>
<path d="M501.98 55.0401H492.42L487.67 28.5501V55.0401H478.11V0.0700684H487.67L492.42 18.9801V0.0700684H501.98V55.0301V55.0401Z" fill="#E72787"/>
<path d="M529.25 47.8101C529.25 49.9301 528.4 51.6301 526.7 52.9801C525 54.3301 523.09 54.9601 520.89 54.9601L505.45 55.0301V0.0700684H520.89C523.09 0.0700684 525 0.710068 526.7 2.05007C528.4 3.40007 529.25 5.09007 529.25 7.22007V47.8101ZM519.69 12.6101C519.69 10.6301 518.91 9.63007 517.35 9.63007H515.01V45.4001H517.35C518.91 45.4001 519.69 44.4801 519.69 42.7101V12.6101Z" fill="#E72787"/>
</g>
<defs>
<clipPath id="clip0_102_4618">
<rect width="529.25" height="55.04" fill="white"/>
</clipPath>
</defs>
</svg>
